<svg id="svg" version="1.1" xmlns="http://www.w3.org/2000/svg" xmlns:xlink="http://www.w3.org/1999/xlink" width="400" height="400" viewBox="0, 0, 400,400"><g id="svgg"><path id="path0" d="M155.832 36.934 C 155.776 36.985,152.682 37.085,148.958 37.157 C 108.727 37.936,88.851 43.326,70.417 58.459 C 49.280 75.809,39.344 98.717,37.712 133.854 C 37.595 136.375,37.454 139.234,37.399 140.208 C 36.797 150.755,36.797 249.245,37.399 259.792 C 37.454 260.766,37.595 263.625,37.712 266.146 C 38.401 280.969,39.985 290.852,43.365 301.395 C 54.087 334.840,81.019 356.238,118.438 361.041 C 131.786 362.754,142.768 363.021,200.000 363.021 C 257.232 363.021,268.214 362.754,281.563 361.041 C 318.981 356.238,345.913 334.840,356.635 301.395 C 360.020 290.833,361.600 280.979,362.285 266.146 C 362.406 263.510,362.549 260.651,362.602 259.792 C 363.200 250.077,363.200 149.923,362.602 140.208 C 362.549 139.349,362.406 136.490,362.285 133.854 C 360.664 98.744,350.701 75.772,329.583 58.456 C 313.099 44.940,294.461 39.012,264.063 37.617 C 260.281 37.443,256.203 37.247,255.000 37.180 C 252.431 37.038,155.984 36.799,155.832 36.934 M251.563 66.440 C 274.005 67.202,280.173 67.861,289.952 70.541 C 309.132 75.796,322.962 89.093,328.825 107.917 C 333.362 122.481,333.915 133.340,333.831 206.250 C 333.789 242.678,333.701 249.759,333.120 263.021 C 332.124 285.792,328.116 299.495,319.227 310.529 C 308.233 324.173,293.197 331.003,270.417 332.700 C 257.832 333.638,246.334 333.821,200.000 333.821 C 153.666 333.821,142.168 333.638,129.583 332.700 C 90.689 329.802,70.580 310.096,67.410 271.771 C 66.382 259.345,66.179 247.507,66.179 200.000 C 66.179 152.493,66.382 140.655,67.410 128.229 C 70.478 91.148,89.652 71.291,125.938 67.621 C 132.355 66.972,143.925 66.482,157.813 66.271 C 172.413 66.050,243.865 66.179,251.563 66.440 M283.887 93.538 C 267.989 96.421,262.125 115.992,273.851 127.037 C 286.678 139.117,307.470 129.372,306.607 111.684 C 306.048 100.227,295.122 91.501,283.887 93.538 M194.167 116.380 C 167.894 118.728,146.152 131.041,131.307 151.979 C 113.770 176.714,111.355 210.707,125.209 237.813 C 151.247 288.752,218.834 299.534,259.184 259.184 C 299.540 218.827,288.765 151.281,237.813 125.211 C 225.053 118.683,207.695 115.170,194.167 116.380 M206.327 145.938 C 251.554 151.229,270.581 206.491,238.247 238.648 C 210.362 266.379,163.041 256.064,149.042 219.202 C 134.643 181.289,165.975 141.218,206.327 145.938 " stroke="none" fill="#040404" fill-rule="evenodd"></path><path id="path1" d="M0.000 200.000 L 0.000 400.000 200.000 400.000 L 400.000 400.000 400.000 200.000 L 400.000 0.000 200.000 0.000 L 0.000 0.000 0.000 200.000 M254.583 36.965 C 255.672 37.027,258.953 37.175,261.875 37.296 C 277.113 37.925,285.414 38.959,295.521 41.488 C 327.473 49.481,350.515 72.531,358.519 104.506 C 362.803 121.622,363.229 130.259,363.229 200.000 C 363.229 269.741,362.803 278.378,358.519 295.494 C 350.515 327.469,327.473 350.519,295.521 358.512 C 278.364 362.805,269.770 363.229,200.000 363.229 C 130.230 363.229,121.636 362.805,104.479 358.512 C 72.531 350.519,49.485 327.465,41.481 295.494 C 37.196 278.374,36.771 269.756,36.771 200.000 C 36.771 130.244,37.196 121.626,41.481 104.506 C 48.386 76.925,66.678 55.634,92.146 45.535 C 107.215 39.561,120.969 37.486,149.063 36.950 C 152.844 36.878,155.984 36.777,156.041 36.726 C 156.186 36.596,252.166 36.829,254.583 36.965 M154.271 66.476 C 119.212 67.215,106.249 69.688,93.430 78.080 C 77.355 88.605,69.418 104.630,67.407 130.625 C 65.791 151.512,65.791 248.488,67.407 269.375 C 69.893 301.511,82.156 319.855,106.771 328.262 C 120.593 332.983,133.472 333.741,199.896 333.743 C 274.738 333.746,286.525 332.686,302.083 324.551 C 320.954 314.685,330.340 297.682,332.601 269.271 C 334.201 249.161,334.201 150.839,332.601 130.729 C 330.860 108.848,325.868 95.888,314.990 85.010 C 304.330 74.350,290.990 69.100,270.521 67.508 C 256.218 66.396,187.144 65.783,154.271 66.476 M292.351 93.837 C 308.470 98.599,312.084 119.315,298.481 128.970 C 285.573 138.133,267.500 128.679,267.500 112.765 C 267.500 99.912,280.192 90.244,292.351 93.837 M209.583 116.552 C 278.953 124.601,308.746 209.425,259.628 259.033 C 215.573 303.528,139.690 285.658,120.237 226.207 C 103.611 175.395,138.838 121.119,191.458 116.473 C 192.891 116.346,194.438 116.207,194.896 116.163 C 196.814 115.978,206.950 116.247,209.583 116.552 M196.061 145.836 C 150.031 149.666,129.087 204.655,161.038 237.785 C 190.754 268.597,243.254 253.958,252.900 212.172 C 261.073 176.767,232.008 142.846,196.061 145.836 " stroke="none" fill="#fbfbfb" fill-rule="evenodd"></path><path id="path2" d="M166.302 36.822 C 167.305 36.860,168.945 36.860,169.948 36.822 C 170.951 36.784,170.130 36.752,168.125 36.752 C 166.120 36.752,165.299 36.784,166.302 36.822 M185.885 36.823 C 193.648 36.853,206.352 36.853,214.115 36.823 C 221.878 36.793,215.526 36.768,200.000 36.768 C 184.474 36.768,178.122 36.793,185.885 36.823 M230.052 36.822 C 231.055 36.860,232.695 36.860,233.698 36.822 C 234.701 36.784,233.880 36.752,231.875 36.752 C 229.870 36.752,229.049 36.784,230.052 36.822 M152.248 37.029 C 152.968 37.070,154.093 37.070,154.748 37.029 C 155.402 36.988,154.813 36.954,153.438 36.955 C 152.063 36.955,151.527 36.989,152.248 37.029 M245.373 37.029 C 246.093 37.070,247.218 37.070,247.873 37.029 C 248.527 36.988,247.938 36.954,246.563 36.955 C 245.188 36.955,244.652 36.989,245.373 37.029 M144.531 37.230 C 144.789 37.280,145.211 37.280,145.469 37.230 C 145.727 37.181,145.516 37.140,145.000 37.140 C 144.484 37.140,144.273 37.181,144.531 37.230 M254.531 37.230 C 254.789 37.280,255.211 37.280,255.469 37.230 C 255.727 37.181,255.516 37.140,255.000 37.140 C 254.484 37.140,254.273 37.181,254.531 37.230 M139.427 37.435 C 139.628 37.488,139.956 37.488,140.156 37.435 C 140.357 37.383,140.193 37.340,139.792 37.340 C 139.391 37.340,139.227 37.383,139.427 37.435 M259.844 37.435 C 260.044 37.488,260.372 37.488,260.573 37.435 C 260.773 37.383,260.609 37.340,260.208 37.340 C 259.807 37.340,259.643 37.383,259.844 37.435 M134.742 37.647 C 135.001 37.697,135.376 37.695,135.575 37.643 C 135.775 37.591,135.563 37.550,135.104 37.553 C 134.646 37.555,134.483 37.598,134.742 37.647 M264.534 37.647 C 264.793 37.697,265.168 37.695,265.367 37.643 C 265.566 37.591,265.354 37.550,264.896 37.553 C 264.438 37.555,264.275 37.598,264.534 37.647 M130.156 37.855 C 130.414 37.905,130.836 37.905,131.094 37.855 C 131.352 37.806,131.141 37.765,130.625 37.765 C 130.109 37.765,129.898 37.806,130.156 37.855 M268.906 37.855 C 269.164 37.905,269.586 37.905,269.844 37.855 C 270.102 37.806,269.891 37.765,269.375 37.765 C 268.859 37.765,268.648 37.806,268.906 37.855 M127.034 38.064 C 127.293 38.114,127.668 38.112,127.867 38.060 C 128.066 38.008,127.854 37.967,127.396 37.969 C 126.938 37.972,126.775 38.014,127.034 38.064 M272.242 38.064 C 272.501 38.114,272.876 38.112,273.075 38.060 C 273.275 38.008,273.063 37.967,272.604 37.969 C 272.146 37.972,271.983 38.014,272.242 38.064 M188.698 66.198 C 194.914 66.229,205.086 66.229,211.302 66.198 C 217.518 66.167,212.432 66.142,200.000 66.142 C 187.568 66.142,182.482 66.167,188.698 66.198 M153.393 66.404 C 154.056 66.446,155.087 66.445,155.685 66.403 C 156.282 66.361,155.740 66.327,154.479 66.328 C 153.219 66.328,152.730 66.363,153.393 66.404 M244.435 66.404 C 245.098 66.446,246.129 66.445,246.726 66.403 C 247.324 66.361,246.781 66.327,245.521 66.328 C 244.260 66.328,243.772 66.363,244.435 66.404 M145.680 66.608 C 145.997 66.656,146.465 66.654,146.722 66.605 C 146.978 66.556,146.719 66.516,146.146 66.518 C 145.573 66.519,145.363 66.560,145.680 66.608 M253.388 66.608 C 253.705 66.656,254.174 66.654,254.430 66.605 C 254.686 66.556,254.427 66.516,253.854 66.518 C 253.281 66.519,253.072 66.560,253.388 66.608 M139.952 66.818 C 140.326 66.864,140.889 66.863,141.202 66.816 C 141.515 66.768,141.208 66.730,140.521 66.731 C 139.833 66.732,139.577 66.771,139.952 66.818 M258.910 66.818 C 259.284 66.864,259.847 66.863,260.160 66.816 C 260.473 66.768,260.167 66.730,259.479 66.731 C 258.792 66.732,258.536 66.771,258.910 66.818 M135.260 67.024 C 135.576 67.072,136.091 67.072,136.406 67.024 C 136.721 66.976,136.464 66.937,135.833 66.937 C 135.203 66.937,134.945 66.976,135.260 67.024 M263.594 67.024 C 263.909 67.072,264.424 67.072,264.740 67.024 C 265.055 66.976,264.797 66.937,264.167 66.937 C 263.536 66.937,263.279 66.976,263.594 67.024 M131.409 67.231 C 131.668 67.281,132.043 67.279,132.242 67.226 C 132.441 67.174,132.229 67.134,131.771 67.136 C 131.313 67.138,131.150 67.181,131.409 67.231 M267.867 67.231 C 268.126 67.281,268.501 67.279,268.700 67.226 C 268.900 67.174,268.688 67.134,268.229 67.136 C 267.771 67.138,267.608 67.181,267.867 67.231 M314.896 84.792 C 315.343 85.250,315.756 85.625,315.814 85.625 C 315.871 85.625,315.552 85.250,315.104 84.792 C 314.657 84.333,314.244 83.958,314.186 83.958 C 314.129 83.958,314.448 84.333,314.896 84.792 M286.825 93.272 C 287.084 93.322,287.459 93.320,287.659 93.268 C 287.858 93.216,287.646 93.175,287.188 93.178 C 286.729 93.180,286.566 93.223,286.825 93.272 M273.219 99.010 L 272.396 99.896 273.281 99.072 C 274.105 98.306,274.262 98.125,274.105 98.125 C 274.071 98.125,273.672 98.523,273.219 99.010 M267.567 112.917 C 267.567 113.661,267.604 113.966,267.651 113.594 C 267.697 113.221,267.697 112.612,267.651 112.240 C 267.604 111.867,267.567 112.172,267.567 112.917 M306.719 112.813 C 306.722 113.271,306.764 113.434,306.814 113.175 C 306.864 112.916,306.862 112.541,306.810 112.341 C 306.758 112.142,306.717 112.354,306.719 112.813 M199.531 116.189 C 199.789 116.238,200.211 116.238,200.469 116.189 C 200.727 116.139,200.516 116.098,200.000 116.098 C 199.484 116.098,199.273 116.139,199.531 116.189 M273.229 126.667 C 273.793 127.240,274.302 127.708,274.359 127.708 C 274.417 127.708,274.002 127.240,273.438 126.667 C 272.873 126.094,272.365 125.625,272.307 125.625 C 272.250 125.625,272.665 126.094,273.229 126.667 M301.030 126.615 L 300.313 127.396 301.094 126.678 C 301.821 126.010,301.971 125.833,301.812 125.833 C 301.777 125.833,301.425 126.185,301.030 126.615 M37.969 127.396 C 37.972 127.854,38.014 128.017,38.064 127.758 C 38.114 127.499,38.112 127.124,38.060 126.925 C 38.008 126.725,37.967 126.938,37.969 127.396 M361.928 127.396 C 361.930 127.854,361.973 128.017,362.022 127.758 C 362.072 127.499,362.070 127.124,362.018 126.925 C 361.966 126.725,361.925 126.938,361.928 127.396 M37.768 130.521 C 37.769 131.094,37.810 131.303,37.858 130.987 C 37.906 130.670,37.904 130.201,37.855 129.945 C 37.806 129.689,37.766 129.948,37.768 130.521 M362.143 130.521 C 362.144 131.094,362.185 131.303,362.233 130.987 C 362.281 130.670,362.279 130.201,362.230 129.945 C 362.181 129.689,362.141 129.948,362.143 130.521 M67.140 131.667 C 67.140 132.182,67.181 132.393,67.230 132.135 C 67.280 131.878,67.280 131.456,67.230 131.198 C 67.181 130.940,67.140 131.151,67.140 131.667 M332.765 131.667 C 332.765 132.182,332.806 132.393,332.855 132.135 C 332.905 131.878,332.905 131.456,332.855 131.198 C 332.806 130.940,332.765 131.151,332.765 131.667 M286.406 132.442 C 286.779 132.489,287.388 132.489,287.760 132.442 C 288.133 132.396,287.828 132.358,287.083 132.358 C 286.339 132.358,286.034 132.396,286.406 132.442 M37.557 135.000 C 37.557 135.516,37.597 135.727,37.647 135.469 C 37.697 135.211,37.697 134.789,37.647 134.531 C 37.597 134.273,37.557 134.484,37.557 135.000 M362.348 135.000 C 362.348 135.516,362.389 135.727,362.439 135.469 C 362.488 135.211,362.488 134.789,362.439 134.531 C 362.389 134.273,362.348 134.484,362.348 135.000 M66.937 135.833 C 66.937 136.464,66.976 136.721,67.024 136.406 C 67.072 136.091,67.072 135.576,67.024 135.260 C 66.976 134.945,66.937 135.203,66.937 135.833 M332.979 135.833 C 332.979 136.464,333.018 136.721,333.066 136.406 C 333.114 136.091,333.114 135.576,333.066 135.260 C 333.018 134.945,332.979 135.203,332.979 135.833 M140.621 140.781 L 138.438 143.021 140.677 140.837 C 141.909 139.636,142.917 138.628,142.917 138.597 C 142.917 138.447,142.650 138.701,140.621 140.781 M259.163 140.677 C 261.191 142.757,261.458 143.011,261.458 142.861 C 261.458 142.830,260.451 141.822,259.219 140.621 L 256.979 138.438 259.163 140.677 M37.344 139.688 C 37.347 140.146,37.389 140.309,37.439 140.050 C 37.489 139.791,37.487 139.416,37.435 139.216 C 37.383 139.017,37.342 139.229,37.344 139.688 M362.553 139.688 C 362.555 140.146,362.598 140.309,362.647 140.050 C 362.697 139.791,362.695 139.416,362.643 139.216 C 362.591 139.017,362.550 139.229,362.553 139.688 M66.731 140.521 C 66.732 141.208,66.771 141.464,66.818 141.090 C 66.864 140.716,66.863 140.153,66.816 139.840 C 66.768 139.527,66.730 139.833,66.731 140.521 M333.190 140.521 C 333.191 141.208,333.230 141.464,333.276 141.090 C 333.322 140.716,333.321 140.153,333.274 139.840 C 333.226 139.527,333.188 139.833,333.190 140.521 M37.148 145.313 C 37.149 146.000,37.188 146.256,37.234 145.882 C 37.281 145.507,37.280 144.945,37.232 144.632 C 37.185 144.319,37.147 144.625,37.148 145.313 M362.768 145.104 C 362.769 145.677,362.810 145.887,362.858 145.570 C 362.906 145.253,362.904 144.785,362.855 144.528 C 362.806 144.272,362.766 144.531,362.768 145.104 M66.518 146.146 C 66.519 146.719,66.560 146.928,66.608 146.612 C 66.656 146.295,66.654 145.826,66.605 145.570 C 66.556 145.314,66.516 145.573,66.518 146.146 M333.393 146.146 C 333.394 146.719,333.435 146.928,333.483 146.612 C 333.531 146.295,333.529 145.826,333.480 145.570 C 333.431 145.314,333.391 145.573,333.393 146.146 M36.955 153.438 C 36.955 154.813,36.989 155.348,37.029 154.627 C 37.070 153.907,37.070 152.782,37.029 152.127 C 36.988 151.473,36.954 152.063,36.955 153.438 M362.995 153.542 C 362.995 154.859,363.029 155.398,363.071 154.740 C 363.112 154.081,363.112 153.003,363.071 152.344 C 363.029 151.685,362.995 152.224,362.995 153.542 M66.318 153.646 C 66.319 154.448,66.357 154.751,66.402 154.318 C 66.447 153.886,66.446 153.230,66.400 152.860 C 66.354 152.490,66.317 152.844,66.318 153.646 M333.610 153.646 C 333.611 154.448,333.649 154.751,333.694 154.318 C 333.739 153.886,333.738 153.230,333.692 152.860 C 333.646 152.490,333.609 152.844,333.610 153.646 M36.768 196.354 C 36.768 213.885,36.793 221.026,36.823 212.223 C 36.853 203.420,36.853 189.076,36.823 180.348 C 36.793 171.620,36.768 178.823,36.768 196.354 M363.211 168.333 C 363.211 170.339,363.242 171.159,363.280 170.156 C 363.318 169.154,363.318 167.513,363.280 166.510 C 363.242 165.508,363.211 166.328,363.211 168.333 M363.226 200.000 C 363.226 215.411,363.251 221.716,363.281 214.010 C 363.311 206.305,363.311 193.695,363.281 185.990 C 363.251 178.284,363.226 184.589,363.226 200.000 M66.142 200.000 C 66.142 212.432,66.167 217.518,66.198 211.302 C 66.229 205.086,66.229 194.914,66.198 188.698 C 66.167 182.482,66.142 187.568,66.142 200.000 M333.850 200.104 C 333.850 212.479,333.876 217.511,333.906 211.286 C 333.937 205.061,333.937 194.936,333.906 188.786 C 333.876 182.636,333.850 187.729,333.850 200.104 M283.812 200.000 C 283.812 200.630,283.851 200.888,283.899 200.573 C 283.947 200.258,283.947 199.742,283.899 199.427 C 283.851 199.112,283.812 199.370,283.812 200.000 M116.098 200.000 C 116.098 200.516,116.139 200.727,116.189 200.469 C 116.238 200.211,116.238 199.789,116.189 199.531 C 116.139 199.273,116.098 199.484,116.098 200.000 M363.211 231.667 C 363.211 233.672,363.242 234.492,363.280 233.490 C 363.318 232.487,363.318 230.846,363.280 229.844 C 363.242 228.841,363.211 229.661,363.211 231.667 M36.752 231.875 C 36.752 233.880,36.784 234.701,36.822 233.698 C 36.860 232.695,36.860 231.055,36.822 230.052 C 36.784 229.049,36.752 229.870,36.752 231.875 M36.955 246.563 C 36.955 247.938,36.989 248.473,37.029 247.752 C 37.070 247.032,37.070 245.907,37.029 245.252 C 36.988 244.598,36.954 245.188,36.955 246.563 M362.995 246.458 C 362.995 247.776,363.029 248.315,363.071 247.656 C 363.112 246.997,363.112 245.919,363.071 245.260 C 363.029 244.602,362.995 245.141,362.995 246.458 M66.318 246.354 C 66.319 247.156,66.357 247.459,66.402 247.027 C 66.447 246.594,66.446 245.938,66.400 245.568 C 66.354 245.198,66.317 245.552,66.318 246.354 M333.610 246.354 C 333.611 247.156,333.649 247.459,333.694 247.027 C 333.739 246.594,333.738 245.938,333.692 245.568 C 333.646 245.198,333.609 245.552,333.610 246.354 M66.518 253.854 C 66.519 254.427,66.560 254.637,66.608 254.320 C 66.656 254.003,66.654 253.535,66.605 253.278 C 66.556 253.022,66.516 253.281,66.518 253.854 M333.393 253.854 C 333.394 254.427,333.435 254.637,333.483 254.320 C 333.531 254.003,333.529 253.535,333.480 253.278 C 333.431 253.022,333.391 253.281,333.393 253.854 M37.148 254.688 C 37.149 255.375,37.188 255.631,37.234 255.257 C 37.281 254.882,37.280 254.320,37.232 254.007 C 37.185 253.694,37.147 254.000,37.148 254.688 M362.768 254.896 C 362.769 255.469,362.810 255.678,362.858 255.362 C 362.906 255.045,362.904 254.576,362.855 254.320 C 362.806 254.064,362.766 254.323,362.768 254.896 M140.621 259.219 C 141.822 260.451,142.830 261.458,142.861 261.458 C 143.011 261.458,142.757 261.191,140.677 259.163 L 138.438 256.979 140.621 259.219 M259.163 259.323 L 256.979 261.563 259.219 259.379 C 260.451 258.178,261.458 257.170,261.458 257.139 C 261.458 256.989,261.191 257.243,259.163 259.323 M66.731 259.479 C 66.732 260.167,66.771 260.423,66.818 260.048 C 66.864 259.674,66.863 259.111,66.816 258.798 C 66.768 258.485,66.730 258.792,66.731 259.479 M333.190 259.479 C 333.191 260.167,333.230 260.423,333.276 260.048 C 333.322 259.674,333.321 259.111,333.274 258.798 C 333.226 258.485,333.188 258.792,333.190 259.479 M37.344 260.313 C 37.347 260.771,37.389 260.934,37.439 260.675 C 37.489 260.416,37.487 260.041,37.435 259.841 C 37.383 259.642,37.342 259.854,37.344 260.313 M362.553 260.313 C 362.555 260.771,362.598 260.934,362.647 260.675 C 362.697 260.416,362.695 260.041,362.643 259.841 C 362.591 259.642,362.550 259.854,362.553 260.313 M66.937 264.167 C 66.937 264.797,66.976 265.055,67.024 264.740 C 67.072 264.424,67.072 263.909,67.024 263.594 C 66.976 263.279,66.937 263.536,66.937 264.167 M332.979 264.167 C 332.979 264.797,333.018 265.055,333.066 264.740 C 333.114 264.424,333.114 263.909,333.066 263.594 C 333.018 263.279,332.979 263.536,332.979 264.167 M37.557 265.000 C 37.557 265.516,37.597 265.727,37.647 265.469 C 37.697 265.211,37.697 264.789,37.647 264.531 C 37.597 264.273,37.557 264.484,37.557 265.000 M362.348 265.000 C 362.348 265.516,362.389 265.727,362.439 265.469 C 362.488 265.211,362.488 264.789,362.439 264.531 C 362.389 264.273,362.348 264.484,362.348 265.000 M67.140 268.333 C 67.140 268.849,67.181 269.060,67.230 268.802 C 67.280 268.544,67.280 268.122,67.230 267.865 C 67.181 267.607,67.140 267.818,67.140 268.333 M332.765 268.333 C 332.765 268.849,332.806 269.060,332.855 268.802 C 332.905 268.544,332.905 268.122,332.855 267.865 C 332.806 267.607,332.765 267.818,332.765 268.333 M37.768 269.479 C 37.769 270.052,37.810 270.262,37.858 269.945 C 37.906 269.628,37.904 269.160,37.855 268.903 C 37.806 268.647,37.766 268.906,37.768 269.479 M362.143 269.479 C 362.144 270.052,362.185 270.262,362.233 269.945 C 362.281 269.628,362.279 269.160,362.230 268.903 C 362.181 268.647,362.141 268.906,362.143 269.479 M37.969 272.604 C 37.972 273.063,38.014 273.225,38.064 272.966 C 38.114 272.707,38.112 272.332,38.060 272.133 C 38.008 271.934,37.967 272.146,37.969 272.604 M361.928 272.604 C 361.930 273.063,361.973 273.225,362.022 272.966 C 362.072 272.707,362.070 272.332,362.018 272.133 C 361.966 271.934,361.925 272.146,361.928 272.604 M199.427 283.899 C 199.742 283.947,200.258 283.947,200.573 283.899 C 200.888 283.851,200.630 283.812,200.000 283.812 C 199.370 283.812,199.112 283.851,199.427 283.899 M131.409 332.856 C 131.668 332.906,132.043 332.904,132.242 332.851 C 132.441 332.799,132.229 332.759,131.771 332.761 C 131.313 332.763,131.150 332.806,131.409 332.856 M267.867 332.856 C 268.126 332.906,268.501 332.904,268.700 332.851 C 268.900 332.799,268.688 332.759,268.229 332.761 C 267.771 332.763,267.608 332.806,267.867 332.856 M135.260 333.066 C 135.576 333.114,136.091 333.114,136.406 333.066 C 136.721 333.018,136.464 332.979,135.833 332.979 C 135.203 332.979,134.945 333.018,135.260 333.066 M263.594 333.066 C 263.909 333.114,264.424 333.114,264.740 333.066 C 265.055 333.018,264.797 332.979,264.167 332.979 C 263.536 332.979,263.279 333.018,263.594 333.066 M139.952 333.276 C 140.326 333.322,140.889 333.321,141.202 333.274 C 141.515 333.226,141.208 333.188,140.521 333.190 C 139.833 333.191,139.577 333.230,139.952 333.276 M258.910 333.276 C 259.284 333.322,259.847 333.321,260.160 333.274 C 260.473 333.226,260.167 333.188,259.479 333.190 C 258.792 333.191,258.536 333.230,258.910 333.276 M145.680 333.483 C 145.997 333.531,146.465 333.529,146.722 333.480 C 146.978 333.431,146.719 333.391,146.146 333.393 C 145.573 333.394,145.363 333.435,145.680 333.483 M253.388 333.483 C 253.705 333.531,254.174 333.529,254.430 333.480 C 254.686 333.431,254.427 333.391,253.854 333.393 C 253.281 333.394,253.072 333.435,253.388 333.483 M153.393 333.696 C 154.056 333.737,155.087 333.737,155.685 333.695 C 156.282 333.653,155.740 333.619,154.479 333.620 C 153.219 333.620,152.730 333.654,153.393 333.696 M244.435 333.696 C 245.098 333.737,246.129 333.737,246.726 333.695 C 247.324 333.653,246.781 333.619,245.521 333.620 C 244.260 333.620,243.772 333.654,244.435 333.696 M188.802 333.906 C 194.961 333.937,205.039 333.937,211.198 333.906 C 217.357 333.876,212.318 333.850,200.000 333.850 C 187.682 333.850,182.643 333.876,188.802 333.906 M127.034 362.022 C 127.293 362.072,127.668 362.070,127.867 362.018 C 128.066 361.966,127.854 361.925,127.396 361.928 C 126.938 361.930,126.775 361.973,127.034 362.022 M272.242 362.022 C 272.501 362.072,272.876 362.070,273.075 362.018 C 273.275 361.966,273.063 361.925,272.604 361.928 C 272.146 361.930,271.983 361.973,272.242 362.022 M130.156 362.230 C 130.414 362.280,130.836 362.280,131.094 362.230 C 131.352 362.181,131.141 362.140,130.625 362.140 C 130.109 362.140,129.898 362.181,130.156 362.230 M268.906 362.230 C 269.164 362.280,269.586 362.280,269.844 362.230 C 270.102 362.181,269.891 362.140,269.375 362.140 C 268.859 362.140,268.648 362.181,268.906 362.230 M134.742 362.439 C 135.001 362.489,135.376 362.487,135.575 362.435 C 135.775 362.383,135.563 362.342,135.104 362.344 C 134.646 362.347,134.483 362.389,134.742 362.439 M264.534 362.439 C 264.793 362.489,265.168 362.487,265.367 362.435 C 265.566 362.383,265.354 362.342,264.896 362.344 C 264.438 362.347,264.275 362.389,264.534 362.439 M139.427 362.644 C 139.628 362.696,139.956 362.696,140.156 362.644 C 140.357 362.591,140.193 362.548,139.792 362.548 C 139.391 362.548,139.227 362.591,139.427 362.644 M259.844 362.644 C 260.044 362.696,260.372 362.696,260.573 362.644 C 260.773 362.591,260.609 362.548,260.208 362.548 C 259.807 362.548,259.643 362.591,259.844 362.644 M144.531 362.855 C 144.789 362.905,145.211 362.905,145.469 362.855 C 145.727 362.806,145.516 362.765,145.000 362.765 C 144.484 362.765,144.273 362.806,144.531 362.855 M254.531 362.855 C 254.789 362.905,255.211 362.905,255.469 362.855 C 255.727 362.806,255.516 362.765,255.000 362.765 C 254.484 362.765,254.273 362.806,254.531 362.855 M152.248 363.071 C 152.968 363.112,154.093 363.112,154.748 363.070 C 155.402 363.029,154.813 362.996,153.438 362.996 C 152.063 362.997,151.527 363.030,152.248 363.071 M245.373 363.071 C 246.093 363.112,247.218 363.112,247.873 363.070 C 248.527 363.029,247.938 362.996,246.563 362.996 C 245.188 362.997,244.652 363.030,245.373 363.071 M182.240 363.281 C 192.008 363.311,207.992 363.311,217.760 363.281 C 227.529 363.251,219.536 363.227,200.000 363.227 C 180.464 363.227,172.471 363.251,182.240 363.281 " stroke="none" fill="#747474" fill-rule="evenodd"></path><path id="path3" d="M158.073 36.822 C 159.247 36.859,161.169 36.859,162.344 36.822 C 163.518 36.785,162.557 36.755,160.208 36.755 C 157.859 36.755,156.898 36.785,158.073 36.822 M237.656 36.822 C 238.831 36.859,240.753 36.859,241.927 36.822 C 243.102 36.785,242.141 36.755,239.792 36.755 C 237.443 36.755,236.482 36.785,237.656 36.822 M147.969 37.028 C 148.513 37.071,149.404 37.071,149.948 37.028 C 150.492 36.985,150.047 36.950,148.958 36.950 C 147.870 36.950,147.424 36.985,147.969 37.028 M250.052 37.028 C 250.596 37.071,251.487 37.071,252.031 37.028 C 252.576 36.985,252.130 36.950,251.042 36.950 C 249.953 36.950,249.508 36.985,250.052 37.028 M141.308 37.237 C 141.856 37.280,142.700 37.279,143.183 37.236 C 143.667 37.192,143.219 37.157,142.188 37.157 C 141.156 37.158,140.761 37.194,141.308 37.237 M256.933 37.237 C 257.481 37.280,258.325 37.279,258.808 37.236 C 259.292 37.192,258.844 37.157,257.813 37.157 C 256.781 37.158,256.386 37.194,256.933 37.237 M136.202 37.443 C 136.576 37.489,137.139 37.488,137.452 37.441 C 137.765 37.393,137.458 37.355,136.771 37.356 C 136.083 37.357,135.827 37.396,136.202 37.443 M262.660 37.443 C 263.034 37.489,263.597 37.488,263.910 37.441 C 264.223 37.393,263.917 37.355,263.229 37.356 C 262.542 37.357,262.286 37.396,262.660 37.443 M131.930 37.649 C 132.247 37.697,132.715 37.696,132.972 37.647 C 133.228 37.597,132.969 37.558,132.396 37.560 C 131.823 37.561,131.613 37.602,131.930 37.649 M267.138 37.649 C 267.455 37.697,267.924 37.696,268.180 37.647 C 268.436 37.597,268.177 37.558,267.604 37.560 C 267.031 37.561,266.822 37.602,267.138 37.649 M128.492 37.856 C 128.751 37.906,129.126 37.904,129.325 37.851 C 129.525 37.799,129.313 37.759,128.854 37.761 C 128.396 37.763,128.233 37.806,128.492 37.856 M270.784 37.856 C 271.043 37.906,271.418 37.904,271.617 37.851 C 271.816 37.799,271.604 37.759,271.146 37.761 C 270.688 37.763,270.525 37.806,270.784 37.856 M63.955 64.115 L 61.771 66.354 64.010 64.170 C 66.091 62.142,66.345 61.875,66.194 61.875 C 66.164 61.875,65.156 62.883,63.955 64.115 M335.830 64.010 C 337.031 65.242,338.039 66.250,338.069 66.250 C 338.220 66.250,337.966 65.983,335.885 63.955 L 333.646 61.771 335.830 64.010 M158.705 66.404 C 159.310 66.446,160.248 66.446,160.788 66.403 C 161.329 66.360,160.833 66.326,159.688 66.326 C 158.542 66.327,158.099 66.362,158.705 66.404 M239.330 66.404 C 239.935 66.446,240.873 66.446,241.413 66.403 C 241.954 66.360,241.458 66.326,240.313 66.326 C 239.167 66.327,238.724 66.362,239.330 66.404 M148.802 66.608 C 149.117 66.655,149.633 66.655,149.948 66.608 C 150.263 66.560,150.005 66.521,149.375 66.521 C 148.745 66.521,148.487 66.560,148.802 66.608 M250.052 66.608 C 250.367 66.655,250.883 66.655,251.198 66.608 C 251.513 66.560,251.255 66.521,250.625 66.521 C 249.995 66.521,249.737 66.560,250.052 66.608 M142.865 66.814 C 143.122 66.863,143.544 66.863,143.802 66.814 C 144.060 66.764,143.849 66.723,143.333 66.723 C 142.818 66.723,142.607 66.764,142.865 66.814 M256.198 66.814 C 256.456 66.863,256.878 66.863,257.135 66.814 C 257.393 66.764,257.182 66.723,256.667 66.723 C 256.151 66.723,255.940 66.764,256.198 66.814 M138.075 67.022 C 138.334 67.072,138.709 67.070,138.909 67.018 C 139.108 66.966,138.896 66.925,138.438 66.928 C 137.979 66.930,137.816 66.973,138.075 67.022 M261.200 67.022 C 261.459 67.072,261.834 67.070,262.034 67.018 C 262.233 66.966,262.021 66.925,261.563 66.928 C 261.104 66.930,260.941 66.973,261.200 67.022 M133.180 67.233 C 133.497 67.281,133.965 67.279,134.222 67.230 C 134.478 67.181,134.219 67.141,133.646 67.143 C 133.073 67.144,132.863 67.185,133.180 67.233 M265.888 67.233 C 266.205 67.281,266.674 67.279,266.930 67.230 C 267.186 67.181,266.927 67.141,266.354 67.143 C 265.781 67.144,265.572 67.185,265.888 67.233 M129.950 67.439 C 130.209 67.489,130.584 67.487,130.784 67.435 C 130.983 67.383,130.771 67.342,130.313 67.344 C 129.854 67.347,129.691 67.389,129.950 67.439 M269.325 67.439 C 269.584 67.489,269.959 67.487,270.159 67.435 C 270.358 67.383,270.146 67.342,269.688 67.344 C 269.229 67.347,269.066 67.389,269.325 67.439 M86.341 83.594 L 85.729 84.271 86.406 83.659 C 87.037 83.089,87.179 82.917,87.018 82.917 C 86.982 82.917,86.678 83.221,86.341 83.594 M312.917 82.982 C 312.917 83.018,313.221 83.322,313.594 83.659 L 314.271 84.271 313.659 83.594 C 313.089 82.963,312.917 82.821,312.917 82.982 M83.322 86.615 L 82.604 87.396 83.385 86.678 C 83.815 86.283,84.167 85.931,84.167 85.897 C 84.167 85.738,83.990 85.887,83.322 86.615 M316.458 86.563 C 316.847 86.964,317.212 87.292,317.269 87.292 C 317.327 87.292,317.055 86.964,316.667 86.563 C 316.278 86.161,315.913 85.833,315.856 85.833 C 315.798 85.833,316.070 86.161,316.458 86.563 M196.097 116.191 C 196.413 116.239,196.882 116.238,197.138 116.188 C 197.395 116.139,197.135 116.100,196.563 116.101 C 195.990 116.103,195.780 116.143,196.097 116.191 M202.972 116.191 C 203.288 116.239,203.757 116.238,204.013 116.188 C 204.270 116.139,204.010 116.100,203.438 116.101 C 202.865 116.103,202.655 116.143,202.972 116.191 M37.761 128.854 C 37.763 129.313,37.806 129.475,37.856 129.216 C 37.906 128.957,37.904 128.582,37.851 128.383 C 37.799 128.184,37.759 128.396,37.761 128.854 M362.136 128.854 C 362.138 129.313,362.181 129.475,362.231 129.216 C 362.281 128.957,362.279 128.582,362.226 128.383 C 362.174 128.184,362.134 128.396,362.136 128.854 M67.340 130.208 C 67.340 130.609,67.383 130.773,67.435 130.573 C 67.488 130.372,67.488 130.044,67.435 129.844 C 67.383 129.643,67.340 129.807,67.340 130.208 M332.548 130.208 C 332.548 130.609,332.591 130.773,332.644 130.573 C 332.696 130.372,332.696 130.044,332.644 129.844 C 332.591 129.643,332.548 129.807,332.548 130.208 M37.560 132.396 C 37.561 132.969,37.602 133.178,37.649 132.862 C 37.697 132.545,37.696 132.076,37.647 131.820 C 37.597 131.564,37.558 131.823,37.560 132.396 M362.351 132.396 C 362.353 132.969,362.393 133.178,362.441 132.862 C 362.489 132.545,362.488 132.076,362.438 131.820 C 362.389 131.564,362.350 131.823,362.351 132.396 M67.143 133.646 C 67.144 134.219,67.185 134.428,67.233 134.112 C 67.281 133.795,67.279 133.326,67.230 133.070 C 67.181 132.814,67.141 133.073,67.143 133.646 M332.768 133.646 C 332.769 134.219,332.810 134.428,332.858 134.112 C 332.906 133.795,332.904 133.326,332.855 133.070 C 332.806 132.814,332.766 133.073,332.768 133.646 M37.358 136.875 C 37.358 137.620,37.396 137.924,37.442 137.552 C 37.489 137.180,37.489 136.570,37.442 136.198 C 37.396 135.826,37.358 136.130,37.358 136.875 M362.567 136.875 C 362.567 137.620,362.604 137.924,362.651 137.552 C 362.697 137.180,362.697 136.570,362.651 136.198 C 362.604 135.826,362.567 136.130,362.567 136.875 M66.937 138.125 C 66.937 138.755,66.976 139.013,67.024 138.698 C 67.072 138.383,67.072 137.867,67.024 137.552 C 66.976 137.237,66.937 137.495,66.937 138.125 M332.979 138.125 C 332.979 138.755,333.018 139.013,333.066 138.698 C 333.114 138.383,333.114 137.867,333.066 137.552 C 333.018 137.237,332.979 137.495,332.979 138.125 M37.157 142.188 C 37.157 143.219,37.192 143.667,37.236 143.183 C 37.279 142.700,37.280 141.856,37.237 141.308 C 37.194 140.761,37.158 141.156,37.157 142.188 M362.782 142.188 C 362.782 143.219,362.817 143.667,362.861 143.183 C 362.904 142.700,362.905 141.856,362.862 141.308 C 362.819 140.761,362.783 141.156,362.782 142.188 M66.723 143.333 C 66.723 143.849,66.764 144.060,66.814 143.802 C 66.863 143.544,66.863 143.122,66.814 142.865 C 66.764 142.607,66.723 142.818,66.723 143.333 M333.182 143.333 C 333.182 143.849,333.222 144.060,333.272 143.802 C 333.322 143.544,333.322 143.122,333.272 142.865 C 333.222 142.607,333.182 142.818,333.182 143.333 M197.135 145.769 C 197.336 145.821,197.664 145.821,197.865 145.769 C 198.065 145.716,197.901 145.673,197.500 145.673 C 197.099 145.673,196.935 145.716,197.135 145.769 M202.135 145.769 C 202.336 145.821,202.664 145.821,202.865 145.769 C 203.065 145.716,202.901 145.673,202.500 145.673 C 202.099 145.673,201.935 145.716,202.135 145.769 M36.950 148.958 C 36.950 150.047,36.985 150.492,37.028 149.948 C 37.071 149.404,37.071 148.513,37.028 147.969 C 36.985 147.424,36.950 147.870,36.950 148.958 M362.993 149.063 C 362.993 150.208,363.028 150.651,363.071 150.045 C 363.113 149.440,363.112 148.502,363.070 147.962 C 363.027 147.421,362.992 147.917,362.993 149.063 M66.521 149.375 C 66.521 150.005,66.560 150.263,66.608 149.948 C 66.655 149.633,66.655 149.117,66.608 148.802 C 66.560 148.487,66.521 148.745,66.521 149.375 M333.396 149.375 C 333.396 150.005,333.435 150.263,333.483 149.948 C 333.530 149.633,333.530 149.117,333.483 148.802 C 333.435 148.487,333.396 148.745,333.396 149.375 M36.755 160.104 C 36.755 162.510,36.785 163.466,36.822 162.228 C 36.859 160.990,36.859 159.022,36.822 157.853 C 36.785 156.685,36.755 157.698,36.755 160.104 M363.213 160.208 C 363.213 162.557,363.243 163.518,363.280 162.344 C 363.318 161.169,363.318 159.247,363.280 158.073 C 363.243 156.898,363.213 157.859,363.213 160.208 M66.326 159.688 C 66.327 160.833,66.362 161.276,66.404 160.670 C 66.446 160.065,66.446 159.127,66.403 158.587 C 66.360 158.046,66.326 158.542,66.326 159.688 M333.618 159.688 C 333.618 160.833,333.653 161.276,333.696 160.670 C 333.738 160.065,333.737 159.127,333.695 158.587 C 333.652 158.046,333.617 158.542,333.618 159.688 M116.101 196.563 C 116.103 197.135,116.143 197.345,116.191 197.028 C 116.239 196.712,116.238 196.243,116.188 195.987 C 116.139 195.730,116.100 195.990,116.101 196.563 M283.807 196.458 C 283.807 196.974,283.847 197.185,283.897 196.927 C 283.947 196.669,283.947 196.247,283.897 195.990 C 283.847 195.732,283.807 195.943,283.807 196.458 M145.673 197.500 C 145.673 197.901,145.716 198.065,145.769 197.865 C 145.821 197.664,145.821 197.336,145.769 197.135 C 145.716 196.935,145.673 197.099,145.673 197.500 M254.215 197.500 C 254.215 197.901,254.258 198.065,254.310 197.865 C 254.363 197.664,254.363 197.336,254.310 197.135 C 254.258 196.935,254.215 197.099,254.215 197.500 M145.673 202.500 C 145.673 202.901,145.716 203.065,145.769 202.865 C 145.821 202.664,145.821 202.336,145.769 202.135 C 145.716 201.935,145.673 202.099,145.673 202.500 M254.215 202.500 C 254.215 202.901,254.258 203.065,254.310 202.865 C 254.363 202.664,254.363 202.336,254.310 202.135 C 254.258 201.935,254.215 202.099,254.215 202.500 M116.098 203.542 C 116.098 204.057,116.139 204.268,116.189 204.010 C 116.238 203.753,116.238 203.331,116.189 203.073 C 116.139 202.815,116.098 203.026,116.098 203.542 M283.807 203.542 C 283.807 204.057,283.847 204.268,283.897 204.010 C 283.947 203.753,283.947 203.331,283.897 203.073 C 283.847 202.815,283.807 203.026,283.807 203.542 M36.755 239.896 C 36.755 242.302,36.785 243.258,36.822 242.020 C 36.859 240.782,36.859 238.813,36.822 237.645 C 36.785 236.477,36.755 237.490,36.755 239.896 M363.213 239.792 C 363.213 242.141,363.243 243.102,363.280 241.927 C 363.318 240.753,363.318 238.831,363.280 237.656 C 363.243 236.482,363.213 237.443,363.213 239.792 M66.326 240.313 C 66.327 241.458,66.362 241.901,66.404 241.295 C 66.446 240.690,66.446 239.752,66.403 239.212 C 66.360 238.671,66.326 239.167,66.326 240.313 M333.618 240.313 C 333.618 241.458,333.653 241.901,333.696 241.295 C 333.738 240.690,333.737 239.752,333.695 239.212 C 333.652 238.671,333.617 239.167,333.618 240.313 M362.993 250.938 C 362.993 252.083,363.028 252.526,363.071 251.920 C 363.113 251.315,363.112 250.377,363.070 249.837 C 363.027 249.296,362.992 249.792,362.993 250.938 M36.950 251.042 C 36.950 252.130,36.985 252.576,37.028 252.031 C 37.071 251.487,37.071 250.596,37.028 250.052 C 36.985 249.508,36.950 249.953,36.950 251.042 M66.521 250.625 C 66.521 251.255,66.560 251.513,66.608 251.198 C 66.655 250.883,66.655 250.367,66.608 250.052 C 66.560 249.737,66.521 249.995,66.521 250.625 M333.396 250.625 C 333.396 251.255,333.435 251.513,333.483 251.198 C 333.530 250.883,333.530 250.367,333.483 250.052 C 333.435 249.737,333.396 249.995,333.396 250.625 M197.242 254.314 C 197.501 254.364,197.876 254.362,198.075 254.310 C 198.275 254.258,198.063 254.217,197.604 254.219 C 197.146 254.222,196.983 254.264,197.242 254.314 M202.034 254.314 C 202.293 254.364,202.668 254.362,202.867 254.310 C 203.066 254.258,202.854 254.217,202.396 254.219 C 201.938 254.222,201.775 254.264,202.034 254.314 M66.723 256.667 C 66.723 257.182,66.764 257.393,66.814 257.135 C 66.863 256.878,66.863 256.456,66.814 256.198 C 66.764 255.940,66.723 256.151,66.723 256.667 M333.182 256.667 C 333.182 257.182,333.222 257.393,333.272 257.135 C 333.322 256.878,333.322 256.456,333.272 256.198 C 333.222 255.940,333.182 256.151,333.182 256.667 M37.157 257.813 C 37.157 258.844,37.192 259.292,37.236 258.808 C 37.279 258.325,37.280 257.481,37.237 256.933 C 37.194 256.386,37.158 256.781,37.157 257.813 M362.782 257.813 C 362.782 258.844,362.817 259.292,362.861 258.808 C 362.904 258.325,362.905 257.481,362.862 256.933 C 362.819 256.386,362.783 256.781,362.782 257.813 M66.937 261.875 C 66.937 262.505,66.976 262.763,67.024 262.448 C 67.072 262.133,67.072 261.617,67.024 261.302 C 66.976 260.987,66.937 261.245,66.937 261.875 M332.979 261.875 C 332.979 262.505,333.018 262.763,333.066 262.448 C 333.114 262.133,333.114 261.617,333.066 261.302 C 333.018 260.987,332.979 261.245,332.979 261.875 M362.567 263.125 C 362.567 263.870,362.604 264.174,362.651 263.802 C 362.697 263.430,362.697 262.820,362.651 262.448 C 362.604 262.076,362.567 262.380,362.567 263.125 M37.356 263.229 C 37.357 263.917,37.396 264.173,37.443 263.798 C 37.489 263.424,37.488 262.861,37.441 262.548 C 37.393 262.235,37.355 262.542,37.356 263.229 M67.143 266.354 C 67.144 266.927,67.185 267.137,67.233 266.820 C 67.281 266.503,67.279 266.035,67.230 265.778 C 67.181 265.522,67.141 265.781,67.143 266.354 M332.768 266.354 C 332.769 266.927,332.810 267.137,332.858 266.820 C 332.906 266.503,332.904 266.035,332.855 265.778 C 332.806 265.522,332.766 265.781,332.768 266.354 M37.560 267.604 C 37.561 268.177,37.602 268.387,37.649 268.070 C 37.697 267.753,37.696 267.285,37.647 267.028 C 37.597 266.772,37.558 267.031,37.560 267.604 M362.351 267.604 C 362.353 268.177,362.393 268.387,362.441 268.070 C 362.489 267.753,362.488 267.285,362.438 267.028 C 362.389 266.772,362.350 267.031,362.351 267.604 M67.340 269.792 C 67.340 270.193,67.383 270.357,67.435 270.156 C 67.488 269.956,67.488 269.628,67.435 269.427 C 67.383 269.227,67.340 269.391,67.340 269.792 M332.548 269.792 C 332.548 270.193,332.591 270.357,332.644 270.156 C 332.696 269.956,332.696 269.628,332.644 269.427 C 332.591 269.227,332.548 269.391,332.548 269.792 M37.761 271.146 C 37.763 271.604,37.806 271.767,37.856 271.508 C 37.906 271.249,37.904 270.874,37.851 270.675 C 37.799 270.475,37.759 270.688,37.761 271.146 M362.136 271.146 C 362.138 271.604,362.181 271.767,362.231 271.508 C 362.281 271.249,362.279 270.874,362.226 270.675 C 362.174 270.475,362.134 270.688,362.136 271.146 M195.990 283.897 C 196.247 283.947,196.669 283.947,196.927 283.897 C 197.185 283.847,196.974 283.807,196.458 283.807 C 195.943 283.807,195.732 283.847,195.990 283.897 M203.073 283.897 C 203.331 283.947,203.753 283.947,204.010 283.897 C 204.268 283.847,204.057 283.807,203.542 283.807 C 203.026 283.807,202.815 283.847,203.073 283.897 M83.333 313.438 C 83.722 313.839,84.087 314.167,84.144 314.167 C 84.202 314.167,83.930 313.839,83.542 313.438 C 83.153 313.036,82.788 312.708,82.731 312.708 C 82.673 312.708,82.945 313.036,83.333 313.438 M316.447 313.490 L 315.729 314.271 316.510 313.553 C 317.238 312.885,317.387 312.708,317.228 312.708 C 317.194 312.708,316.842 313.060,316.447 313.490 M85.833 315.899 C 85.833 315.934,86.138 316.239,86.510 316.576 L 87.188 317.188 86.576 316.510 C 86.005 315.879,85.833 315.738,85.833 315.899 M313.424 316.510 L 312.813 317.188 313.490 316.576 C 314.121 316.005,314.262 315.833,314.101 315.833 C 314.066 315.833,313.761 316.138,313.424 316.510 M129.950 332.647 C 130.209 332.697,130.584 332.695,130.784 332.643 C 130.983 332.591,130.771 332.550,130.313 332.553 C 129.854 332.555,129.691 332.598,129.950 332.647 M269.325 332.647 C 269.584 332.697,269.959 332.695,270.159 332.643 C 270.358 332.591,270.146 332.550,269.688 332.553 C 269.229 332.555,269.066 332.598,269.325 332.647 M133.180 332.858 C 133.497 332.906,133.965 332.904,134.222 332.855 C 134.478 332.806,134.219 332.766,133.646 332.768 C 133.073 332.769,132.863 332.810,133.180 332.858 M265.888 332.858 C 266.205 332.906,266.674 332.904,266.930 332.855 C 267.186 332.806,266.927 332.766,266.354 332.768 C 265.781 332.769,265.572 332.810,265.888 332.858 M138.075 333.064 C 138.334 333.114,138.709 333.112,138.909 333.060 C 139.108 333.008,138.896 332.967,138.438 332.969 C 137.979 332.972,137.816 333.014,138.075 333.064 M261.200 333.064 C 261.459 333.114,261.834 333.112,262.034 333.060 C 262.233 333.008,262.021 332.967,261.563 332.969 C 261.104 332.972,260.941 333.014,261.200 333.064 M142.865 333.272 C 143.122 333.322,143.544 333.322,143.802 333.272 C 144.060 333.222,143.849 333.182,143.333 333.182 C 142.818 333.182,142.607 333.222,142.865 333.272 M256.198 333.272 C 256.456 333.322,256.878 333.322,257.135 333.272 C 257.393 333.222,257.182 333.182,256.667 333.182 C 256.151 333.182,255.940 333.222,256.198 333.272 M148.802 333.483 C 149.117 333.530,149.633 333.530,149.948 333.483 C 150.263 333.435,150.005 333.396,149.375 333.396 C 148.745 333.396,148.487 333.435,148.802 333.483 M250.052 333.483 C 250.367 333.530,250.883 333.530,251.198 333.483 C 251.513 333.435,251.255 333.396,250.625 333.396 C 249.995 333.396,249.737 333.435,250.052 333.483 M158.705 333.696 C 159.310 333.738,160.248 333.737,160.788 333.695 C 161.329 333.652,160.833 333.617,159.688 333.618 C 158.542 333.618,158.099 333.653,158.705 333.696 M239.330 333.696 C 239.935 333.738,240.873 333.737,241.413 333.695 C 241.954 333.652,241.458 333.617,240.313 333.618 C 239.167 333.618,238.724 333.653,239.330 333.696 M63.955 335.885 C 65.156 337.117,66.164 338.125,66.194 338.125 C 66.345 338.125,66.091 337.858,64.010 335.830 L 61.771 333.646 63.955 335.885 M335.830 335.990 L 333.646 338.229 335.885 336.045 C 337.117 334.844,338.125 333.836,338.125 333.806 C 338.125 333.655,337.858 333.909,335.830 335.990 M128.492 362.231 C 128.751 362.281,129.126 362.279,129.325 362.226 C 129.525 362.174,129.313 362.134,128.854 362.136 C 128.396 362.138,128.233 362.181,128.492 362.231 M270.784 362.231 C 271.043 362.281,271.418 362.279,271.617 362.226 C 271.816 362.174,271.604 362.134,271.146 362.136 C 270.688 362.138,270.525 362.181,270.784 362.231 M131.930 362.441 C 132.247 362.489,132.715 362.488,132.972 362.438 C 133.228 362.389,132.969 362.350,132.396 362.351 C 131.823 362.353,131.613 362.393,131.930 362.441 M267.138 362.441 C 267.455 362.489,267.924 362.488,268.180 362.438 C 268.436 362.389,268.177 362.350,267.604 362.351 C 267.031 362.353,266.822 362.393,267.138 362.441 M136.202 362.651 C 136.576 362.697,137.139 362.696,137.452 362.649 C 137.765 362.601,137.458 362.563,136.771 362.565 C 136.083 362.566,135.827 362.605,136.202 362.651 M262.660 362.651 C 263.034 362.697,263.597 362.696,263.910 362.649 C 264.223 362.601,263.917 362.563,263.229 362.565 C 262.542 362.566,262.286 362.605,262.660 362.651 M141.308 362.862 C 141.856 362.905,142.700 362.904,143.183 362.861 C 143.667 362.817,143.219 362.782,142.188 362.782 C 141.156 362.783,140.761 362.819,141.308 362.862 M256.933 362.862 C 257.481 362.905,258.325 362.904,258.808 362.861 C 259.292 362.817,258.844 362.782,257.813 362.782 C 256.781 362.783,256.386 362.819,256.933 362.862 M147.969 363.070 C 148.513 363.113,149.404 363.113,149.948 363.070 C 150.492 363.027,150.047 362.992,148.958 362.992 C 147.870 362.992,147.424 363.027,147.969 363.070 M250.052 363.070 C 250.596 363.113,251.487 363.113,252.031 363.070 C 252.576 363.027,252.130 362.992,251.042 362.992 C 249.953 362.992,249.508 363.027,250.052 363.070 M158.073 363.280 C 159.247 363.318,161.169 363.318,162.344 363.280 C 163.518 363.243,162.557 363.213,160.208 363.213 C 157.859 363.213,156.898 363.243,158.073 363.280 M237.656 363.280 C 238.831 363.318,240.753 363.318,241.927 363.280 C 243.102 363.243,242.141 363.213,239.792 363.213 C 237.443 363.213,236.482 363.243,237.656 363.280 " stroke="none" fill="#a0a0a0" fill-rule="evenodd"></path><path id="path4" d="M138.177 37.435 C 138.378 37.488,138.706 37.488,138.906 37.435 C 139.107 37.383,138.943 37.340,138.542 37.340 C 138.141 37.340,137.977 37.383,138.177 37.435 M261.094 37.435 C 261.294 37.488,261.622 37.488,261.823 37.435 C 262.023 37.383,261.859 37.340,261.458 37.340 C 261.057 37.340,260.893 37.383,261.094 37.435 M147.344 66.602 C 147.544 66.654,147.872 66.654,148.073 66.602 C 148.273 66.550,148.109 66.507,147.708 66.507 C 147.307 66.507,147.143 66.550,147.344 66.602 M251.927 66.602 C 252.128 66.654,252.456 66.654,252.656 66.602 C 252.857 66.550,252.693 66.507,252.292 66.507 C 251.891 66.507,251.727 66.550,251.927 66.602 M300.938 98.958 C 301.385 99.417,301.798 99.792,301.855 99.792 C 301.913 99.792,301.593 99.417,301.146 98.958 C 300.698 98.500,300.285 98.125,300.228 98.125 C 300.171 98.125,300.490 98.500,300.938 98.958 M66.507 147.708 C 66.507 148.109,66.550 148.273,66.602 148.073 C 66.654 147.872,66.654 147.544,66.602 147.344 C 66.550 147.143,66.507 147.307,66.507 147.708 M333.382 147.708 C 333.382 148.109,333.425 148.273,333.477 148.073 C 333.529 147.872,333.529 147.544,333.477 147.344 C 333.425 147.143,333.382 147.307,333.382 147.708 M66.307 155.833 C 66.307 156.349,66.347 156.560,66.397 156.302 C 66.447 156.044,66.447 155.622,66.397 155.365 C 66.347 155.107,66.307 155.318,66.307 155.833 M333.598 155.833 C 333.598 156.349,333.639 156.560,333.689 156.302 C 333.738 156.044,333.738 155.622,333.689 155.365 C 333.639 155.107,333.598 155.318,333.598 155.833 M66.307 244.167 C 66.307 244.682,66.347 244.893,66.397 244.635 C 66.447 244.378,66.447 243.956,66.397 243.698 C 66.347 243.440,66.307 243.651,66.307 244.167 M333.598 244.167 C 333.598 244.682,333.639 244.893,333.689 244.635 C 333.738 244.378,333.738 243.956,333.689 243.698 C 333.639 243.440,333.598 243.651,333.598 244.167 M66.507 252.292 C 66.507 252.693,66.550 252.857,66.602 252.656 C 66.654 252.456,66.654 252.128,66.602 251.927 C 66.550 251.727,66.507 251.891,66.507 252.292 M333.382 252.292 C 333.382 252.693,333.425 252.857,333.477 252.656 C 333.529 252.456,333.529 252.128,333.477 251.927 C 333.425 251.727,333.382 251.891,333.382 252.292 M147.344 333.477 C 147.544 333.529,147.872 333.529,148.073 333.477 C 148.273 333.425,148.109 333.382,147.708 333.382 C 147.307 333.382,147.143 333.425,147.344 333.477 M251.927 333.477 C 252.128 333.529,252.456 333.529,252.656 333.477 C 252.857 333.425,252.693 333.382,252.292 333.382 C 251.891 333.382,251.727 333.425,251.927 333.477 M138.177 362.644 C 138.378 362.696,138.706 362.696,138.906 362.644 C 139.107 362.591,138.943 362.548,138.542 362.548 C 138.141 362.548,137.977 362.591,138.177 362.644 M261.094 362.644 C 261.294 362.696,261.622 362.696,261.823 362.644 C 262.023 362.591,261.859 362.548,261.458 362.548 C 261.057 362.548,260.893 362.591,261.094 362.644 " stroke="none" fill="#7c7c7c" fill-rule="evenodd"></path></g></svg>