<?xml version="1.0" standalone="no"?>
<!DOCTYPE svg PUBLIC "-//W3C//DTD SVG 20010904//EN"
 "http://www.w3.org/TR/2001/REC-SVG-20010904/DTD/svg10.dtd">
<svg version="1.0" xmlns="http://www.w3.org/2000/svg"
 width="12138.000000pt" height="2552.000000pt" viewBox="0 0 12138.000000 2552.000000"
 preserveAspectRatio="xMidYMid meet">

<g transform="translate(0.000000,2552.000000) scale(0.100000,-0.100000)"
fill="#000000" stroke="none">
<path d="M97142 16660 c-210 -198 -385 -360 -388 -360 -4 0 -43 33 -88 73
-341 308 -713 486 -1181 566 -422 71 -905 45 -1320 -71 -581 -161 -1019 -467
-1318 -918 -421 -634 -449 -1580 -65 -2227 88 -148 178 -263 308 -394 228
-230 482 -406 859 -594 217 -108 386 -176 1111 -445 360 -133 727 -274 815
-312 586 -253 933 -531 1123 -896 106 -205 145 -368 146 -607 0 -234 -32 -398
-115 -574 -207 -442 -659 -734 -1238 -801 -156 -18 -514 -8 -666 19 -355 63
-656 183 -945 376 -185 123 -269 193 -446 369 -216 217 -367 403 -566 696 -99
145 -279 438 -343 558 l-28 52 -284 0 -285 0 6 -37 c3 -21 71 -623 151 -1338
80 -715 147 -1315 150 -1332 l6 -33 139 0 139 0 377 380 376 379 77 -67 c439
-387 991 -628 1646 -718 183 -25 647 -26 825 -1 541 76 998 265 1365 562 384
312 662 759 769 1241 74 332 76 763 6 1087 -148 677 -615 1183 -1472 1597
-305 147 -433 195 -1273 485 -683 235 -776 270 -970 365 -500 244 -776 547
-881 965 -34 133 -43 373 -21 520 59 385 275 673 643 858 271 136 592 196 988
184 334 -10 573 -64 836 -189 403 -191 715 -510 1021 -1043 64 -111 206 -402
249 -507 l24 -58 284 0 285 0 -6 63 c-3 34 -40 598 -82 1252 -42 655 -78 1200
-81 1213 -4 22 -7 22 -142 22 l-138 0 -382 -360z"/>
<path d="M81025 16933 c-736 -47 -1394 -267 -1995 -668 -623 -416 -1091 -953
-1430 -1640 -235 -476 -364 -925 -427 -1477 -24 -216 -24 -760 0 -976 140
-1237 741 -2308 1692 -3019 550 -411 1159 -660 1846 -754 195 -27 744 -38 963
-20 1216 102 2285 734 2985 1766 597 879 853 1962 725 3065 -66 570 -255 1146
-539 1640 -427 744 -1038 1320 -1790 1690 -461 227 -920 349 -1465 390 -123 9
-443 11 -565 3z m510 -698 c407 -54 756 -184 1088 -405 183 -122 280 -202 437
-360 324 -325 574 -728 759 -1221 338 -904 386 -2145 118 -3079 -63 -218 -136
-405 -243 -620 -154 -310 -308 -531 -524 -754 -390 -401 -851 -642 -1380 -721
-154 -23 -471 -31 -640 -16 -767 68 -1421 444 -1910 1096 -378 505 -638 1186
-734 1925 -36 273 -41 370 -41 775 1 438 8 543 61 855 121 718 424 1353 859
1799 222 228 423 375 690 506 278 137 549 208 905 239 94 8 440 -4 555 -19z"/>
<path d="M29196 16872 c-3 -5 -640 -1583 -1416 -3508 -777 -1924 -1440 -3557
-1475 -3629 -86 -175 -172 -303 -275 -406 -166 -168 -293 -222 -564 -238
l-111 -6 -3 -287 -2 -288 1320 0 1320 0 -2 268 -3 267 -55 2 c-358 16 -572
112 -658 295 -40 85 -52 149 -52 277 0 118 17 225 56 366 18 63 464 1242 561
1483 4 9 323 12 1547 12 l1541 0 268 -698 c298 -779 308 -806 336 -935 60
-279 26 -455 -110 -581 -127 -118 -347 -190 -646 -212 l-93 -7 0 -268 0 -269
1535 0 1535 0 -2 288 -3 287 -84 7 c-343 28 -582 244 -838 757 -98 194 -110
226 -1991 4946 l-829 2080 -401 3 c-220 1 -403 -2 -406 -6z m819 -3027 c345
-896 629 -1636 632 -1642 4 -10 -252 -13 -1262 -13 -1202 0 -1267 1 -1263 18
3 9 283 739 623 1622 339 883 621 1616 626 1629 5 13 11 22 13 20 2 -2 286
-737 631 -1634z"/>
<path d="M108305 16828 c-13 -29 -647 -1601 -1410 -3493 -762 -1892 -1418
-3505 -1456 -3585 -90 -185 -181 -322 -283 -424 -166 -167 -294 -220 -558
-233 l-118 -6 0 -288 0 -289 1315 0 1315 0 0 270 0 270 -72 0 c-175 0 -384 53
-491 124 -208 138 -256 417 -141 818 14 48 146 401 293 785 l268 698 1543 0
1544 0 258 -670 c330 -856 347 -909 367 -1102 41 -397 -185 -593 -744 -646
l-130 -12 -3 -268 -2 -267 1535 0 1535 0 0 290 0 290 -57 0 c-192 0 -416 114
-566 288 -123 141 -291 432 -407 707 -24 55 -643 1605 -1376 3445 l-1333 3345
-401 3 -401 2 -24 -52z m838 -4636 c-348 -1 -918 -1 -1266 0 l-633 3 615 1600
c339 880 624 1621 634 1645 l18 45 633 -1645 633 -1645 -634 -3z"/>
<path d="M8510 16522 l0 -289 148 -6 c228 -9 385 -41 531 -108 232 -107 349
-296 381 -617 8 -75 10 -954 8 -2917 l-4 -2810 -21 -90 c-41 -177 -114 -310
-220 -398 -62 -52 -206 -120 -308 -146 -112 -28 -298 -51 -416 -51 l-99 0 0
-290 0 -290 1470 0 1470 0 -2 288 -3 287 -150 7 c-366 15 -612 98 -754 254
-65 70 -135 212 -163 329 l-22 90 -3 2924 c-2 1609 -1 2922 2 2920 3 -3 691
-1600 1529 -3550 l1524 -3544 138 -2 139 -3 1587 3563 1588 3562 0 -2863 c0
-1961 -3 -2893 -11 -2958 -24 -221 -81 -357 -198 -475 -155 -156 -393 -232
-776 -248 l-150 -6 -3 -287 -2 -288 1715 0 1715 0 -2 288 -3 287 -150 6 c-644
27 -923 236 -975 729 -14 139 -14 5541 1 5685 49 492 302 696 898 724 l136 6
3 288 2 287 -2020 0 -2020 0 0 -289 0 -289 328 -5 c272 -3 337 -7 386 -21 163
-48 253 -128 292 -262 33 -116 2 -325 -83 -540 -21 -54 -518 -1178 -1103
-2496 -934 -2103 -1066 -2394 -1076 -2375 -41 79 -2139 4951 -2159 5013 -94
289 -28 528 173 621 113 53 136 56 480 60 l322 5 0 289 0 289 -2035 0 -2035 0
0 -288z"/>
<path d="M40040 16521 l0 -288 158 -6 c337 -12 599 -89 744 -217 107 -93 193
-273 217 -453 15 -111 15 -5684 0 -5794 -26 -187 -109 -359 -220 -456 -147
-129 -396 -201 -736 -214 l-163 -6 0 -289 0 -288 1680 0 1680 0 0 288 0 289
-147 6 c-483 20 -756 174 -865 487 -55 158 -52 65 -55 1645 -3 1183 -1 1457 9
1447 7 -7 769 -945 1693 -2085 l1680 -2072 938 -3 937 -2 -2 287 -3 288 -95 7
c-447 34 -744 179 -1132 556 -276 269 -333 333 -1548 1757 l-913 1070 59 6
c32 4 118 12 189 19 743 69 1388 328 1803 724 302 289 475 636 543 1090 28
186 31 505 5 680 -59 409 -214 737 -478 1011 -129 134 -221 211 -368 307 -426
278 -1004 440 -1745 488 -101 6 -845 10 -2012 10 l-1853 0 0 -289z m3536 -401
c353 -29 616 -93 861 -210 388 -186 646 -485 758 -879 76 -265 85 -642 23
-930 -143 -669 -659 -1035 -1618 -1147 -101 -12 -276 -17 -702 -21 l-568 -5 0
1601 0 1601 559 0 c307 0 616 -5 687 -10z"/>
<path d="M53842 16523 l3 -288 152 -7 c385 -16 619 -91 774 -247 117 -119 176
-260 200 -481 6 -63 9 -1055 7 -2910 -3 -2674 -5 -2819 -22 -2890 -24 -99 -69
-214 -106 -270 -142 -214 -412 -321 -855 -339 l-150 -6 -3 -287 -2 -288 1715
0 1715 0 -2 288 -3 287 -155 7 c-265 11 -440 47 -600 125 -220 106 -338 302
-370 614 -14 137 -14 5502 0 5650 49 512 319 718 980 748 l145 6 3 288 2 287
-1715 0 -1715 0 2 -287z"/>
<path d="M64022 16523 l3 -288 155 -7 c639 -28 921 -232 980 -708 7 -56 10
-1009 10 -2868 0 -2465 -2 -2796 -16 -2889 -67 -456 -340 -645 -969 -672
l-150 -6 -3 -287 -2 -288 1780 0 1780 0 -2 288 -3 287 -175 6 c-461 18 -716
92 -880 258 -122 122 -179 266 -200 502 -6 67 -10 508 -10 1066 l0 952 723 4
c763 4 797 6 1117 57 592 96 1150 327 1545 640 107 84 270 244 363 355 368
439 547 1029 503 1660 -38 537 -178 927 -462 1286 -83 104 -256 273 -365 355
-443 333 -1051 522 -1849 574 -101 6 -838 10 -2017 10 l-1858 0 2 -287z m3666
-427 c642 -84 1068 -317 1353 -740 200 -296 290 -658 276 -1101 -14 -400 -101
-703 -282 -980 -255 -390 -692 -642 -1275 -734 -221 -35 -344 -41 -897 -41
l-543 0 0 1811 0 1811 623 -5 c493 -4 648 -8 745 -21z"/>
</g>
</svg>
