<?xml version="1.0" standalone="no"?>
<!DOCTYPE svg PUBLIC "-//W3C//DTD SVG 20010904//EN"
 "http://www.w3.org/TR/2001/REC-SVG-20010904/DTD/svg10.dtd">
<svg version="1.0" xmlns="http://www.w3.org/2000/svg"
 width="6069.000000pt" height="1276.000000pt" viewBox="0 0 6069.000000 1276.000000"
 preserveAspectRatio="xMidYMid meet">

<g transform="translate(0.000000,1276.000000) scale(0.100000,-0.100000)"
fill="#000000" stroke="none">
<path d="M48569 8330 l-190 -180 -72 61 c-149 126 -299 199 -500 246 -100 24
-132 27 -307 27 -215 0 -300 -12 -468 -65 -126 -41 -209 -79 -306 -142 -276
-181 -438 -457 -464 -792 -38 -502 185 -855 705 -1113 136 -68 216 -100 628
-252 529 -196 730 -315 861 -511 83 -126 115 -230 115 -381 0 -308 -202 -559
-521 -647 -166 -46 -386 -46 -577 -1 -383 91 -700 370 -1003 883 l-75 127
-137 0 -138 0 0 -29 c0 -26 52 -507 65 -601 3 -19 20 -181 40 -360 19 -179 37
-339 40 -355 5 -30 6 -31 72 -33 l67 -3 192 192 192 192 53 -47 c168 -151 429
-273 701 -328 95 -19 145 -22 318 -22 228 0 325 14 497 75 204 72 349 165 491
314 184 194 275 396 304 678 9 90 9 144 0 235 -40 405 -246 679 -683 910 -146
78 -264 125 -674 267 -418 145 -510 183 -630 255 -163 99 -271 228 -320 381
-21 66 -25 100 -25 192 0 181 40 293 144 405 140 150 350 224 632 224 203 -1
337 -31 491 -111 215 -112 372 -295 539 -625 l81 -161 139 0 139 0 -3 40 c-15
261 -73 1160 -78 1193 l-5 42 -70 0 -70 0 -190 -180z"/>
<path d="M40450 8463 c-472 -48 -882 -235 -1214 -553 -348 -333 -573 -778
-641 -1265 -18 -133 -24 -404 -12 -535 91 -936 754 -1706 1625 -1885 957 -197
1865 255 2287 1137 138 290 204 578 210 918 5 290 -26 505 -111 760 -260 781
-931 1333 -1726 1419 -90 10 -337 12 -418 4z m394 -358 c402 -78 740 -341 959
-747 100 -185 184 -449 223 -698 24 -159 29 -600 8 -755 -58 -423 -214 -767
-463 -1016 -252 -252 -513 -360 -871 -359 -282 0 -495 61 -713 203 -505 329
-779 977 -754 1782 8 248 36 422 98 614 105 321 271 571 492 743 187 144 392
226 632 252 74 8 309 -4 389 -19z"/>
<path d="M14597 8433 c-3 -5 -91 -222 -197 -483 -105 -261 -278 -691 -385
-955 -107 -264 -342 -849 -524 -1300 -219 -542 -347 -846 -378 -899 -82 -137
-173 -213 -280 -236 -42 -9 -64 -12 -145 -19 -15 -1 -16 -17 -15 -143 l2 -143
658 -3 657 -2 0 139 0 139 -63 1 c-154 2 -272 73 -303 180 -21 70 -14 187 17
286 16 52 193 520 276 733 4 10 165 12 776 10 l770 -3 143 -371 c173 -450 192
-528 159 -641 -17 -59 -71 -114 -142 -145 -57 -25 -165 -48 -230 -48 l-53 0 0
-140 0 -140 765 0 765 0 0 144 c0 157 0 156 -60 156 -16 0 -53 9 -82 20 -175
67 -274 221 -491 770 -69 173 -334 839 -590 1480 -255 641 -505 1266 -554
1390 l-89 225 -201 3 c-111 1 -204 -1 -206 -5z m407 -1505 c170 -442 309 -809
310 -815 1 -10 -130 -13 -624 -13 -493 0 -624 3 -622 13 8 32 618 1617 622
1617 3 0 145 -361 314 -802z"/>
<path d="M54157 8428 c-3 -7 -251 -623 -552 -1368 -300 -745 -616 -1528 -702
-1740 -211 -523 -244 -587 -356 -685 -54 -48 -147 -85 -212 -85 -18 0 -47 -3
-64 -6 l-31 -6 0 -144 0 -144 660 0 661 0 -3 138 -3 137 -81 6 c-149 11 -245
65 -281 157 -24 63 -22 193 5 287 11 38 80 226 154 417 l133 348 770 0 770 0
143 -372 c78 -205 149 -400 157 -433 37 -148 7 -269 -82 -325 -62 -40 -158
-69 -258 -78 l-80 -7 -3 -137 -3 -138 771 0 770 0 0 145 0 144 -37 6 c-116 17
-173 44 -251 119 -107 101 -182 248 -385 761 -85 215 -351 881 -590 1480 -239
600 -474 1190 -522 1313 l-89 222 -202 0 c-152 0 -203 -3 -207 -12z m413
-1506 c172 -447 311 -815 308 -817 -6 -6 -1239 -7 -1245 -1 -3 3 136 372 308
820 172 449 314 814 315 813 1 -1 143 -368 314 -815z"/>
<path d="M4250 8266 l0 -143 31 -7 c17 -3 55 -6 85 -6 119 0 276 -59 331 -124
38 -45 70 -122 82 -196 15 -88 15 -2829 1 -2920 -13 -80 -60 -180 -103 -216
-74 -63 -173 -93 -359 -110 l-68 -6 0 -144 0 -144 738 2 737 3 3 143 c3 142 2
142 -20 143 -24 1 -31 2 -148 13 -165 16 -281 81 -335 187 -46 87 -45 57 -45
1583 0 793 0 1448 0 1456 0 8 27 -46 59 -120 64 -146 719 -1670 1166 -2710
153 -355 284 -658 292 -673 13 -27 17 -28 80 -25 l66 3 339 760 c1053 2365
1229 2758 1238 2775 6 9 9 -563 7 -1455 l-2 -1470 -22 -66 c-29 -83 -86 -150
-162 -189 -62 -31 -176 -58 -256 -61 -27 -1 -67 -4 -87 -6 l-38 -6 0 -143 0
-144 858 2 857 3 3 142 3 141 -68 6 c-202 17 -319 49 -389 109 -39 33 -89 127
-103 195 -8 37 -11 477 -11 1490 0 1545 -2 1491 50 1591 55 109 201 180 370
181 106 1 100 -8 100 156 l0 144 -1010 0 -1010 0 0 -143 0 -144 169 -6 c180
-6 235 -19 288 -69 60 -56 66 -161 19 -301 -20 -59 -1050 -2388 -1090 -2466
-13 -23 -13 -23 -30 20 -10 24 -109 256 -221 514 -536 1242 -833 1933 -844
1965 -34 102 -20 210 34 265 52 52 108 66 293 72 l162 6 0 143 0 144 -1020 0
-1020 0 0 -144z"/>
<path d="M20020 8267 c0 -166 -6 -157 102 -157 86 0 206 -26 275 -60 111 -55
165 -143 183 -300 8 -66 10 -524 8 -1490 -4 -1551 1 -1439 -71 -1547 -58 -87
-179 -146 -325 -158 -37 -3 -91 -8 -119 -11 l-53 -5 0 -145 0 -144 840 0 840
0 0 145 c0 80 -3 145 -7 145 -251 10 -399 67 -466 183 -58 99 -58 87 -57 876
0 398 1 726 3 728 2 2 56 -61 119 -139 63 -79 196 -242 294 -363 99 -122 426
-526 728 -898 l549 -677 466 2 466 3 3 139 c2 105 -1 141 -10 148 -7 4 -36 8
-64 8 -68 0 -195 33 -272 71 -181 88 -333 245 -1006 1034 l-494 580 111 12
c161 18 305 48 438 93 410 136 655 388 735 754 19 86 26 305 13 401 -65 475
-439 788 -1049 879 -58 8 -125 18 -150 22 -25 3 -492 8 -1037 11 l-993 4 0
-144z m1965 -234 c441 -100 665 -389 641 -828 -10 -182 -48 -300 -138 -420
-129 -174 -416 -292 -758 -311 -52 -3 -200 -6 -328 -7 l-232 -2 0 798 0 799
363 -5 c317 -4 373 -7 452 -24z"/>
<path d="M26920 8265 c0 -131 2 -145 18 -146 9 -1 31 -3 47 -4 17 -2 62 -6
102 -10 200 -17 326 -99 376 -244 l22 -66 3 -1425 c2 -936 -1 -1448 -8 -1492
-35 -231 -176 -320 -537 -337 -23 -1 -23 -3 -23 -146 l0 -145 858 2 857 3 3
134 c1 74 -1 138 -5 142 -5 5 -61 13 -124 19 -246 21 -362 91 -416 251 -17 51
-18 125 -18 1529 0 1134 3 1484 12 1515 52 169 178 247 432 265 64 5 117 9
119 9 1 1 1 65 0 144 l-3 142 -857 3 -858 2 0 -145z"/>
<path d="M32010 8266 l0 -145 43 -5 c23 -3 76 -8 117 -11 232 -17 360 -110
400 -291 7 -30 10 -527 10 -1488 0 -1578 2 -1507 -58 -1606 -15 -24 -46 -59
-69 -76 -77 -59 -146 -77 -375 -100 l-58 -5 0 -145 0 -144 888 2 887 3 3 141
3 141 -47 7 c-26 3 -70 6 -99 6 -138 0 -307 51 -382 114 -45 38 -91 137 -103
221 -5 39 -10 289 -10 556 l0 487 378 5 c390 6 486 14 672 57 517 122 879 412
1016 812 46 136 58 222 58 403 0 190 -16 292 -66 434 -38 109 -64 158 -126
246 -218 308 -585 475 -1128 514 -71 5 -540 10 -1041 10 l-913 1 0 -144z
m1915 -231 c220 -41 359 -110 496 -245 82 -82 102 -108 142 -190 68 -136 88
-225 92 -400 6 -208 -25 -359 -102 -500 -103 -191 -280 -327 -514 -394 -140
-41 -209 -48 -546 -53 l-333 -5 0 907 0 907 338 -5 c256 -3 358 -9 427 -22z"/>
</g>
</svg>
